{
    "asset" : {
        "generator" : "Khronos glTF Blender I/O v1.8.19",
        "version" : "2.0"
    },
    "scene" : 0,
    "scenes" : [
        {
            "name" : "Scene",
            "nodes" : [
                0
            ]
        }
    ],
    "nodes" : [
        {
            "mesh" : 0,
            "name" : "Cube.002",
            "translation" : [
                0.017256764695048332,
                121.78565979003906,
                -159.38134765625
            ]
        }
    ],
    "meshes" : [
        {
            "name" : "Cube.001",
            "primitives" : [
                {
                    "attributes" : {
                        "POSITION" : 0,
                        "NORMAL" : 1,
                        "TEXCOORD_0" : 2
                    },
                    "indices" : 3
                }
            ]
        }
    ],
    "accessors" : [
        {
            "bufferView" : 0,
            "componentType" : 5126,
            "count" : 4002,
            "max" : [
                0.8167291283607483,
                -119.21357727050781,
                163.96414184570312
            ],
            "min" : [
                -0.4209252595901489,
                -121.12791442871094,
                163.05393981933594
            ],
            "type" : "VEC3"
        },
        {
            "bufferView" : 1,
            "componentType" : 5126,
            "count" : 4002,
            "type" : "VEC3"
        },
        {
            "bufferView" : 2,
            "componentType" : 5126,
            "count" : 4002,
            "type" : "VEC2"
        },
        {
            "bufferView" : 3,
            "componentType" : 5123,
            "count" : 8034,
            "type" : "SCALAR"
        }
    ],
    "bufferViews" : [
        {
            "buffer" : 0,
            "byteLength" : 48024,
            "byteOffset" : 0
        },
        {
            "buffer" : 0,
            "byteLength" : 48024,
            "byteOffset" : 48024
        },
        {
            "buffer" : 0,
            "byteLength" : 32016,
            "byteOffset" : 96048
        },
        {
            "buffer" : 0,
            "byteLength" : 16068,
            "byteOffset" : 128064
        }
    ],
    "buffers" : [
        {
            "byteLength" : 144132,
            "uri" : "data:application/octet-stream;base64,"
        }
    ]
}
